<svg viewBox="0 0 400 300" xmlns="http://www.w3.org/2000/svg">
    <!-- Gradient Background -->
    <defs>
        <linearGradient id="bgGradient" x1="0%" y1="0%" x2="100%" y2="100%">
            <stop offset="0%" stop-color="#f1f5f9" />
            <stop offset="100%" stop-color="#e2e8f0" />
        </linearGradient>
        <linearGradient id="accentGradient" x1="0%" y1="0%" x2="100%" y2="100%">
            <stop offset="0%" stop-color="#2563eb" />
            <stop offset="100%" stop-color="#3b82f6" />
        </linearGradient>
    </defs>

    <!-- Base Circle -->
    <circle cx="200" cy="150" r="120" fill="url(#bgGradient)" />

    <!-- AI Grid Pattern -->
    <g stroke="#3b82f6" stroke-width="1" opacity="0.2">
        <line x1="120" y1="90" x2="280" y2="90" />
        <line x1="120" y1="120" x2="280" y2="120" />
        <line x1="120" y1="150" x2="280" y2="150" />
        <line x1="120" y1="180" x2="280" y2="180" />
        <line x1="120" y1="210" x2="280" y2="210" />

        <line x1="150" y1="60" x2="150" y2="240" />
        <line x1="180" y1="60" x2="180" y2="240" />
        <line x1="210" y1="60" x2="210" y2="240" />
        <line x1="240" y1="60" x2="240" y2="240" />
    </g>

    <!-- Main Logo Elements -->
    <g>
        <!-- Modern Stylized Person -->
        <circle cx="175" cy="115" r="22" fill="url(#accentGradient)" />
        <path d="M145,190 C145,160 205,160 205,190" fill="url(#accentGradient)" />

        <!-- AI Circuit Board -->
        <path d="M225,105 L255,105 L255,135 L225,135 Z" fill="none" stroke="#2563eb" stroke-width="3" />
        <circle cx="240" cy="120" r="8" fill="#2563eb" />

        <line x1="240" y1="105" x2="240" y2="95" stroke="#2563eb" stroke-width="3" />
        <line x1="240" y1="135" x2="240" y2="145" stroke="#2563eb" stroke-width="3" />
        <line x1="225" y1="120" x2="215" y2="120" stroke="#2563eb" stroke-width="3" />
        <line x1="255" y1="120" x2="265" y2="120" stroke="#2563eb" stroke-width="3" />

        <circle cx="240" cy="95" r="4" fill="#2563eb" />
        <circle cx="240" cy="145" r="4" fill="#2563eb" />
        <circle cx="215" cy="120" r="4" fill="#2563eb" />
        <circle cx="265" cy="120" r="4" fill="#2563eb" />

        <!-- Connection Line -->
        <path d="M205,140 C220,140 225,120 240,120" stroke="#2563eb" stroke-width="3" fill="none" stroke-linecap="round" />

        <!-- Document Lines -->
        <rect x="145" y="160" width="60" height="70" rx="5" fill="white" stroke="#2563eb" stroke-width="2" />
        <line x1="155" y1="175" x2="195" y2="175" stroke="#2563eb" stroke-width="2" />
        <line x1="155" y1="190" x2="195" y2="190" stroke="#2563eb" stroke-width="2" />
        <line x1="155" y1="205" x2="180" y2="205" stroke="#2563eb" stroke-width="2" />

        <!-- Checkmark -->
        <path d="M235,190 L245,200 L265,180" stroke="#2563eb" stroke-width="4" fill="none" stroke-linecap="round" stroke-linejoin="round" />
    </g>

    <!-- Accent Ring -->
    <circle cx="200" cy="150" r="117" stroke="url(#accentGradient)" stroke-width="3" fill="none" />

    <!-- Orbital Accent -->
    <ellipse cx="200" cy="150" rx="130" ry="65" stroke="#3b82f6" stroke-width="1" stroke-dasharray="5,5" fill="none" transform="rotate(45 200 150)">
        <animateTransform attributeName="transform" type="rotate" from="45 200 150" to="405 200 150" dur="90s" repeatCount="indefinite" />
    </ellipse>
</svg>